<svg xmlns="http://www.w3.org/2000/svg" width="478.70355224609375" height="346.00067138671875" viewBox="-159.7694549560547 -75.37667083740234 478.70355224609375 346.00067138671875"><title>Neo4j Graph Visualization</title><desc>Created using Neo4j (http://www.neo4j.com/)</desc><g class="layer relationships"><g class="relationship" transform="translate(-20.28584740674522 75.31033136505762) rotate(261.9736773213583)"><path class="outline" fill="#A5ABB6" stroke="none" d="M 25 0.5 L 35.44541874080174 0.5 L 35.44541874080174 -0.5 L 25 -0.5 Z M 80.44541874080174 0.5 L 90.89083748160348 0.5 L 90.89083748160348 3.5 L 97.89083748160348 0 L 90.89083748160348 -3.5 L 90.89083748160348 -0.5 L 80.44541874080174 -0.5 Z"/><text text-anchor="middle" pointer-events="none" font-size="8px" fill="#000000" x="57.94541874080174" y="3" transform="rotate(180 57.94541874080174 0)" font-family="sans-serif">ACTED_IN</text></g><g class="relationship" transform="translate(-20.28584740674522 75.31033136505762) rotate(199.27243810109064)"><path class="outline" fill="#A5ABB6" stroke="none" d="M 25 0.5 L 32.52134644766512 0.5 L 32.52134644766512 -0.5 L 25 -0.5 Z M 77.52134644766511 0.5 L 85.04269289533023 0.5 L 85.04269289533023 3.5 L 92.04269289533023 0 L 85.04269289533023 -3.5 L 85.04269289533023 -0.5 L 77.52134644766511 -0.5 Z"/><text text-anchor="middle" pointer-events="none" font-size="8px" fill="#000000" x="55.02134644766512" y="3" transform="rotate(180 55.02134644766512 0)" font-family="sans-serif">ACTED_IN</text></g><g class="relationship" transform="translate(-20.28584740674522 75.31033136505762) rotate(410.8540738467549)"><path class="outline" fill="#A5ABB6" stroke="none" d="M 25 0.5 L 51.51587534807197 0.5 L 51.51587534807197 -0.5 L 25 -0.5 Z M 96.51587534807197 0.5 L 123.03175069614394 0.5 L 123.03175069614394 3.5 L 130.03175069614394 0 L 123.03175069614394 -3.5 L 123.03175069614394 -0.5 L 96.51587534807197 -0.5 Z"/><text text-anchor="middle" pointer-events="none" font-size="8px" fill="#000000" x="74.01587534807197" y="3" font-family="sans-serif">ACTED_IN</text></g><g class="relationship" transform="translate(-20.28584740674522 75.31033136505762) rotate(393.99488295681454)"><path class="outline" fill="#A5ABB6" stroke="none" d="M 25 0.5 L 28.353081672049285 0.5 L 28.353081672049285 -0.5 L 25 -0.5 Z M 73.35308167204929 0.5 L 76.70616334409857 0.5 L 76.70616334409857 3.5 L 83.70616334409857 0 L 76.70616334409857 -3.5 L 76.70616334409857 -0.5 L 73.35308167204929 -0.5 Z"/><text text-anchor="middle" pointer-events="none" font-size="8px" fill="#000000" x="50.853081672049285" y="3" font-family="sans-serif">ACTED_IN</text></g><g class="relationship" transform="translate(-29.045179465610502 154.52271997109295) rotate(381.04186299099575)"><path class="outline" fill="#A5ABB6" stroke="none" d="M 25 0.5 L 31.124406775367177 0.5 L 31.124406775367177 -0.5 L 25 -0.5 Z M 76.12440677536718 0.5 L 82.24881355073435 0.5 L 82.24881355073435 3.5 L 89.24881355073435 0 L 82.24881355073435 -3.5 L 82.24881355073435 -0.5 L 76.12440677536718 -0.5 Z"/><text text-anchor="middle" pointer-events="none" font-size="8px" fill="#000000" x="53.62440677536718" y="3" font-family="sans-serif">ACTED_IN</text></g><g class="relationship" transform="translate(-29.045179465610502 154.52271997109295) rotate(349.4410599417564)"><path class="outline" fill="#A5ABB6" stroke="none" d="M 25 0.5 L 26.29477249774633 0.5 L 26.29477249774633 -0.5 L 25 -0.5 Z M 67.29477249774632 0.5 L 68.58954499549266 0.5 L 68.58954499549266 3.5 L 75.58954499549266 0 L 68.58954499549266 -3.5 L 68.58954499549266 -0.5 L 67.29477249774632 -0.5 Z"/><text text-anchor="middle" pointer-events="none" font-size="8px" fill="#000000" x="46.79477249774633" y="3" font-family="sans-serif">ACTED…</text></g><g class="relationship" transform="translate(-3.98500005074033 213.64428541643142) rotate(347.4887362959571)"><path class="outline" fill="#A5ABB6" stroke="none" d="M 25 0.5 L 25.777232225002592 0.5 L 25.777232225002592 -0.5 L 25 -0.5 Z M 50.77723222500259 0.5 L 51.554464450005185 0.5 L 51.554464450005185 3.5 L 58.554464450005185 0 L 51.554464450005185 -3.5 L 51.554464450005185 -0.5 L 50.77723222500259 -0.5 Z"/><text text-anchor="middle" pointer-events="none" font-size="8px" fill="#000000" x="38.27723222500259" y="3" font-family="sans-serif">AC…</text></g><g class="relationship" transform="translate(-3.98500005074033 213.64428541643142) rotate(313.5891981765734)"><path class="outline" fill="#A5ABB6" stroke="none" d="M 25 0.5 L 27.53726952503788 0.5 L 27.53726952503788 -0.5 L 25 -0.5 Z M 72.53726952503789 0.5 L 75.07453905007576 0.5 L 75.07453905007576 3.5 L 82.07453905007576 0 L 75.07453905007576 -3.5 L 75.07453905007576 -0.5 L 72.53726952503789 -0.5 Z"/><text text-anchor="middle" pointer-events="none" font-size="8px" fill="#000000" x="50.03726952503788" y="3" font-family="sans-serif">ACTED_IN</text></g><g class="relationship" transform="translate(178.7009757135985 127.64480693389945) rotate(431.11170779470945)"><path class="outline" fill="#A5ABB6" stroke="none" d="M 25 0.5 L 34.23305046859355 0.5 L 34.23305046859355 -0.5 L 25 -0.5 Z M 79.23305046859355 0.5 L 88.4661009371871 0.5 L 88.4661009371871 3.5 L 95.4661009371871 0 L 88.4661009371871 -3.5 L 88.4661009371871 -0.5 L 79.23305046859355 -0.5 Z"/><text text-anchor="middle" pointer-events="none" font-size="8px" fill="#000000" x="56.73305046859355" y="3" font-family="sans-serif">ACTED_IN</text></g><g class="relationship" transform="translate(178.7009757135985 127.64480693389945) rotate(381.5782280813817)"><path class="outline" fill="#A5ABB6" stroke="none" d="M 25 0.5 L 33.808124216130444 0.5 L 33.808124216130444 -0.5 L 25 -0.5 Z M 78.80812421613044 0.5 L 87.61624843226089 0.5 L 87.61624843226089 3.5 L 94.61624843226089 0 L 87.61624843226089 -3.5 L 87.61624843226089 -0.5 L 78.80812421613044 -0.5 Z"/><text text-anchor="middle" pointer-events="none" font-size="8px" fill="#000000" x="56.308124216130444" y="3" font-family="sans-serif">ACTED_IN</text></g><g class="relationship" transform="translate(178.7009757135985 127.64480693389945) rotate(335.01923821060257)"><path class="outline" fill="#A5ABB6" stroke="none" d="M 25 0.5 L 35.232645979759404 0.5 L 35.232645979759404 -0.5 L 25 -0.5 Z M 80.23264597975941 0.5 L 90.46529195951881 0.5 L 90.46529195951881 3.5 L 97.46529195951881 0 L 90.46529195951881 -3.5 L 90.46529195951881 -0.5 L 80.23264597975941 -0.5 Z"/><text text-anchor="middle" pointer-events="none" font-size="8px" fill="#000000" x="57.732645979759404" y="3" font-family="sans-serif">ACTED_IN</text></g><g class="relationship" transform="translate(178.7009757135985 127.64480693389945) rotate(287.5193745345414)"><path class="outline" fill="#A5ABB6" stroke="none" d="M 25 0.5 L 36.70406979539292 0.5 L 36.70406979539292 -0.5 L 25 -0.5 Z M 81.70406979539291 0.5 L 93.40813959078584 0.5 L 93.40813959078584 3.5 L 100.40813959078584 0 L 93.40813959078584 -3.5 L 93.40813959078584 -0.5 L 81.70406979539291 -0.5 Z"/><text text-anchor="middle" pointer-events="none" font-size="8px" fill="#000000" x="59.20406979539292" y="3" font-family="sans-serif">ACTED_IN</text></g><g class="relationship" transform="translate(178.7009757135985 127.64480693389945) rotate(506.11872052369586)"><path class="outline" fill="#A5ABB6" stroke="none" d="M 25 0.5 L 34.898768608834054 0.5 L 34.898768608834054 -0.5 L 25 -0.5 Z M 79.89876860883405 0.5 L 89.79753721766811 0.5 L 89.79753721766811 3.5 L 96.79753721766811 0 L 89.79753721766811 -3.5 L 89.79753721766811 -0.5 L 79.89876860883405 -0.5 Z"/><text text-anchor="middle" pointer-events="none" font-size="8px" fill="#000000" x="57.398768608834054" y="3" transform="rotate(180 57.398768608834054 0)" font-family="sans-serif">ACTED_IN</text></g><g class="relationship" transform="translate(178.7009757135985 127.64480693389945) rotate(535.5639629815189)"><path class="outline" fill="#A5ABB6" stroke="none" d="M 25 0.5 L 28.593496053346925 0.5 L 28.593496053346925 -0.5 L 25 -0.5 Z M 73.59349605334693 0.5 L 77.18699210669385 0.5 L 77.18699210669385 3.5 L 84.18699210669385 0 L 77.18699210669385 -3.5 L 77.18699210669385 -0.5 L 73.59349605334693 -0.5 Z"/><text text-anchor="middle" pointer-events="none" font-size="8px" fill="#000000" x="51.093496053346925" y="3" transform="rotate(180 51.093496053346925 0)" font-family="sans-serif">ACTED_IN</text></g><g class="relationship" transform="translate(-20.28584740674522 75.31033136505762) rotate(360.5318512314072)"><path class="outline" fill="#A5ABB6" stroke="none" d="M 25 0.5 L 25.176507824238044 0.5 L 25.176507824238044 -0.5 L 25 -0.5 Z M 60.176507824238044 0.5 L 60.35301564847609 0.5 L 60.35301564847609 3.5 L 67.35301564847609 0 L 60.35301564847609 -3.5 L 60.35301564847609 -0.5 L 60.176507824238044 -0.5 Z"/><text text-anchor="middle" pointer-events="none" font-size="8px" fill="#000000" x="42.676507824238044" y="3" font-family="sans-serif">ACTE…</text></g><g class="relationship" transform="translate(-29.045179465610502 154.52271997109295) rotate(322.22568120929134)"><path class="outline" fill="#A5ABB6" stroke="none" d="M 25 0.5 L 37.95785427837178 0.5 L 37.95785427837178 -0.5 L 25 -0.5 Z M 82.95785427837177 0.5 L 95.91570855674355 0.5 L 95.91570855674355 3.5 L 102.91570855674355 0 L 95.91570855674355 -3.5 L 95.91570855674355 -0.5 L 82.95785427837177 -0.5 Z"/><text text-anchor="middle" pointer-events="none" font-size="8px" fill="#000000" x="60.45785427837178" y="3" font-family="sans-serif">ACTED_IN</text></g><g class="relationship" transform="translate(-3.98500005074033 213.64428541643142) rotate(298.95011832872194)"><path class="outline" fill="#A5ABB6" stroke="none" d="M 25 0.5 L 52.554389801198255 0.5 L 52.554389801198255 -0.5 L 25 -0.5 Z M 97.55438980119825 0.5 L 125.10877960239651 0.5 L 125.10877960239651 3.5 L 132.1087796023965 0 L 125.10877960239651 -3.5 L 125.10877960239651 -0.5 L 97.55438980119825 -0.5 Z"/><text text-anchor="middle" pointer-events="none" font-size="8px" fill="#000000" x="75.05438980119825" y="3" font-family="sans-serif">ACTED_IN</text></g><g class="relationship" transform="translate(178.7009757135985 127.64480693389945) rotate(205.7679791219798)"><path class="outline" fill="#A5ABB6" stroke="none" d="M 25 0.5 L 33.206252249770735 0.5 L 33.206252249770735 -0.5 L 25 -0.5 Z M 78.20625224977073 0.5 L 86.41250449954147 0.5 L 86.41250449954147 3.5 L 93.41250449954147 0 L 86.41250449954147 -3.5 L 86.41250449954147 -0.5 L 78.20625224977073 -0.5 Z"/><text text-anchor="middle" pointer-events="none" font-size="8px" fill="#000000" x="55.706252249770735" y="3" transform="rotate(180 55.706252249770735 0)" font-family="sans-serif">ACTED_IN</text></g></g><g class="layer nodes"><g class="node" transform="translate(-37.44485327481674,-46.37667063001729)"><circle class="outline" cx="0" cy="0" r="25" fill="#F79767" stroke="#f36924" stroke-width="2px"/><text text-anchor="middle" pointer-events="none" font-family="sans-serif" dy="1.5625" font-size="25" fill="#FFFFFF"/><text text-anchor="middle" pointer-events="none" font-family="sans-serif" dy="1.5625" font-size="25" fill="#FFFFFF"/><text text-anchor="middle" pointer-events="none" x="0" y="0" font-size="10px" fill="#FFFFFF" font-family="sans-serif"> Cloud</text><text text-anchor="middle" pointer-events="none" x="0" y="10" font-size="10px" fill="#FFFFFF" font-family="sans-serif"> Atlas</text></g><g class="node" transform="translate(-20.28584740674522,75.31033136505762)"><circle class="outline" cx="0" cy="0" r="25" fill="#57C7E3" stroke="#23b3d7" stroke-width="2px"/><text text-anchor="middle" pointer-events="none" font-family="sans-serif" dy="1.5625" font-size="25" fill="#2A2C34"/><text text-anchor="middle" pointer-events="none" font-family="sans-serif" dy="1.5625" font-size="25" fill="#2A2C34"/><text text-anchor="middle" pointer-events="none" x="0" y="0" font-size="10px" fill="#2A2C34" font-family="sans-serif"> Hugo</text><text text-anchor="middle" pointer-events="none" x="0" y="10" font-size="10px" fill="#2A2C34" font-family="sans-serif"> Weaving</text></g><g class="node" transform="translate(-130.7694484760971,36.67918001101568)"><circle class="outline" cx="0" cy="0" r="25" fill="#F79767" stroke="#f36924" stroke-width="2px"/><text text-anchor="middle" pointer-events="none" font-family="sans-serif" dy="1.5625" font-size="25" fill="#FFFFFF"/><text text-anchor="middle" pointer-events="none" font-family="sans-serif" dy="1.5625" font-size="25" fill="#FFFFFF"/><text text-anchor="middle" pointer-events="none" x="0" y="0" font-size="10px" fill="#FFFFFF" font-family="sans-serif"> V for</text><text text-anchor="middle" pointer-events="none" x="0" y="10" font-size="10px" fill="#FFFFFF" font-family="sans-serif"> Vendetta</text></g><g class="node" transform="translate(77.58533318461534,195.5437532308792)"><circle class="outline" cx="0" cy="0" r="25" fill="#F79767" stroke="#f36924" stroke-width="2px"/><text text-anchor="middle" pointer-events="none" font-family="sans-serif" dy="1.5625" font-size="25" fill="#FFFFFF"/><text text-anchor="middle" pointer-events="none" font-family="sans-serif" dy="1.5625" font-size="25" fill="#FFFFFF"/><text text-anchor="middle" pointer-events="none" font-family="sans-serif" dy="1.5625" font-size="25" fill="#FFFFFF"/><text text-anchor="middle" pointer-events="none" x="0" y="-5" font-size="10px" fill="#FFFFFF" font-family="sans-serif"> The</text><text text-anchor="middle" pointer-events="none" x="0" y="5" font-size="10px" fill="#FFFFFF" font-family="sans-serif"> Matrix</text><text text-anchor="middle" pointer-events="none" x="0" y="15" font-size="10px" fill="#FFFFFF" font-family="sans-serif"> Revol…</text></g><g class="node" transform="translate(69.84107491973963,136.089997545036)"><circle class="outline" cx="0" cy="0" r="25" fill="#F79767" stroke="#f36924" stroke-width="2px"/><text text-anchor="middle" pointer-events="none" font-family="sans-serif" dy="1.5625" font-size="25" fill="#FFFFFF"/><text text-anchor="middle" pointer-events="none" font-family="sans-serif" dy="1.5625" font-size="25" fill="#FFFFFF"/><text text-anchor="middle" pointer-events="none" font-family="sans-serif" dy="1.5625" font-size="25" fill="#FFFFFF"/><text text-anchor="middle" pointer-events="none" x="0" y="-5" font-size="10px" fill="#FFFFFF" font-family="sans-serif"> The</text><text text-anchor="middle" pointer-events="none" x="0" y="5" font-size="10px" fill="#FFFFFF" font-family="sans-serif"> Matrix</text><text text-anchor="middle" pointer-events="none" x="0" y="15" font-size="10px" fill="#FFFFFF" font-family="sans-serif"> Reloa…</text></g><g class="node" transform="translate(-29.045179465610502,154.52271997109295)"><circle class="outline" cx="0" cy="0" r="25" fill="#57C7E3" stroke="#23b3d7" stroke-width="2px"/><text text-anchor="middle" pointer-events="none" font-family="sans-serif" dy="1.5625" font-size="25" fill="#2A2C34"/><text text-anchor="middle" pointer-events="none" x="0" y="5" font-size="10px" fill="#2A2C34" font-family="sans-serif"> Laurence</text></g><g class="node" transform="translate(-3.98500005074033,213.64428541643142)"><circle class="outline" cx="0" cy="0" r="25" fill="#57C7E3" stroke="#23b3d7" stroke-width="2px"/><text text-anchor="middle" pointer-events="none" font-family="sans-serif" dy="1.5625" font-size="25" fill="#2A2C34"/><text text-anchor="middle" pointer-events="none" x="0" y="5" font-size="10px" fill="#2A2C34" font-family="sans-serif"> Carrie-A…</text></g><g class="node" transform="translate(217.6987544666228,241.62399243431753)"><circle class="outline" cx="0" cy="0" r="25" fill="#F79767" stroke="#f36924" stroke-width="2px"/><text text-anchor="middle" pointer-events="none" font-family="sans-serif" dy="1.5625" font-size="25" fill="#FFFFFF"/><text text-anchor="middle" pointer-events="none" x="0" y="5" font-size="10px" fill="#FFFFFF" font-family="sans-serif"> Someth…</text></g><g class="node" transform="translate(178.7009757135985,127.64480693389945)"><circle class="outline" cx="0" cy="0" r="25" fill="#57C7E3" stroke="#23b3d7" stroke-width="2px"/><text text-anchor="middle" pointer-events="none" font-family="sans-serif" dy="1.5625" font-size="25" fill="#2A2C34"/><text text-anchor="middle" pointer-events="none" font-family="sans-serif" dy="1.5625" font-size="25" fill="#2A2C34"/><text text-anchor="middle" pointer-events="none" x="0" y="0" font-size="10px" fill="#2A2C34" font-family="sans-serif"> Keanu</text><text text-anchor="middle" pointer-events="none" x="0" y="10" font-size="10px" fill="#2A2C34" font-family="sans-serif"> Reeves</text></g><g class="node" transform="translate(289.93407523678104,171.63622040828238)"><circle class="outline" cx="0" cy="0" r="25" fill="#F79767" stroke="#f36924" stroke-width="2px"/><text text-anchor="middle" pointer-events="none" font-family="sans-serif" dy="1.5625" font-size="25" fill="#FFFFFF"/><text text-anchor="middle" pointer-events="none" font-family="sans-serif" dy="1.5625" font-size="25" fill="#FFFFFF"/><text text-anchor="middle" pointer-events="none" x="0" y="0" font-size="10px" fill="#FFFFFF" font-family="sans-serif"> The</text><text text-anchor="middle" pointer-events="none" x="0" y="10" font-size="10px" fill="#FFFFFF" font-family="sans-serif"> Replac…</text></g><g class="node" transform="translate(289.7095953425279,75.92600858349448)"><circle class="outline" cx="0" cy="0" r="25" fill="#F79767" stroke="#f36924" stroke-width="2px"/><text text-anchor="middle" pointer-events="none" font-family="sans-serif" dy="1.5625" font-size="25" fill="#FFFFFF"/><text text-anchor="middle" pointer-events="none" font-family="sans-serif" dy="1.5625" font-size="25" fill="#FFFFFF"/><text text-anchor="middle" pointer-events="none" x="0" y="0" font-size="10px" fill="#FFFFFF" font-family="sans-serif"> Johnny</text><text text-anchor="middle" pointer-events="none" x="0" y="10" font-size="10px" fill="#FFFFFF" font-family="sans-serif"> Mnem…</text></g><g class="node" transform="translate(216.45237241540292,8.053697219652651)"><circle class="outline" cx="0" cy="0" r="25" fill="#F79767" stroke="#f36924" stroke-width="2px"/><text text-anchor="middle" pointer-events="none" font-family="sans-serif" dy="1.5625" font-size="25" fill="#FFFFFF"/><text text-anchor="middle" pointer-events="none" font-family="sans-serif" dy="1.5625" font-size="25" fill="#FFFFFF"/><text text-anchor="middle" pointer-events="none" font-family="sans-serif" dy="1.5625" font-size="25" fill="#FFFFFF"/><text text-anchor="middle" pointer-events="none" x="0" y="-5" font-size="10px" fill="#FFFFFF" font-family="sans-serif"> The</text><text text-anchor="middle" pointer-events="none" x="0" y="5" font-size="10px" fill="#FFFFFF" font-family="sans-serif"> Devil's</text><text text-anchor="middle" pointer-events="none" x="0" y="15" font-size="10px" fill="#FFFFFF" font-family="sans-serif"> Advoc…</text></g><g class="node" transform="translate(72.0631894331991,76.16759101200064)"><circle class="outline" cx="0" cy="0" r="25" fill="#F79767" stroke="#f36924" stroke-width="2px"/><text text-anchor="middle" pointer-events="none" font-family="sans-serif" dy="1.5625" font-size="25" fill="#FFFFFF"/><text text-anchor="middle" pointer-events="none" font-family="sans-serif" dy="1.5625" font-size="25" fill="#FFFFFF"/><text text-anchor="middle" pointer-events="none" x="0" y="0" font-size="10px" fill="#FFFFFF" font-family="sans-serif"> The</text><text text-anchor="middle" pointer-events="none" x="0" y="10" font-size="10px" fill="#FFFFFF" font-family="sans-serif"> Matrix</text></g></g></svg>