<svg xmlns="http://www.w3.org/2000/svg" width="265.41156005859375" height="262.3023681640625" viewBox="-21.758403778076172 -40.753082275390625 265.41156005859375 262.3023681640625"><title>Neo4j Graph Visualization</title><desc>Created using Neo4j (http://www.neo4j.com/)</desc><g class="layer relationships"><g class="relationship" transform="translate(69.33938970598219 -11.753083449519847) rotate(427.6640217537312)"><path class="outline" fill="#A5ABB6" stroke="none" d="M 25 0.5 L 26.52955511291541 0.5 L 26.52955511291541 -0.5 L 25 -0.5 Z M 73.5295551129154 0.5 L 75.05911022583082 0.5 L 75.05911022583082 3.5 L 82.05911022583082 0 L 75.05911022583082 -3.5 L 75.05911022583082 -0.5 L 73.5295551129154 -0.5 Z"/><text text-anchor="middle" pointer-events="none" font-size="8px" fill="#000000" x="50.02955511291541" y="3" font-family="sans-serif">DIRECTED</text></g><g class="relationship" transform="translate(7.241595629060627 124.54620418138451) rotate(340.06781434280595)"><path class="outline" fill="#A5ABB6" stroke="none" d="M 25 0.5 L 33.66683144950503 0.5 L 33.66683144950503 -0.5 L 25 -0.5 Z M 68.66683144950503 0.5 L 77.33366289901006 0.5 L 77.33366289901006 3.5 L 84.33366289901006 0 L 77.33366289901006 -3.5 L 77.33366289901006 -0.5 L 68.66683144950503 -0.5 Z"/><text text-anchor="middle" pointer-events="none" font-size="8px" fill="#000000" x="51.16683144950503" y="3" font-family="sans-serif">WROTE</text></g><g class="relationship" transform="translate(131.85599653680825 192.54928334191712) rotate(258.2850681061812)"><path class="outline" fill="#A5ABB6" stroke="none" d="M 25 0.5 L 27.757659183663463 0.5 L 27.757659183663463 -0.5 L 25 -0.5 Z M 72.75765918366346 0.5 L 75.51531836732693 0.5 L 75.51531836732693 3.5 L 82.51531836732693 0 L 75.51531836732693 -3.5 L 75.51531836732693 -0.5 L 72.75765918366346 -0.5 Z"/><text text-anchor="middle" pointer-events="none" font-size="8px" fill="#000000" x="50.25765918366346" y="3" transform="rotate(180 50.25765918366346 0)" font-family="sans-serif">ACTED_IN</text></g><g class="relationship" transform="translate(214.6531531054794 66.66107044502958) rotate(528.8549846239858)"><path class="outline" fill="#A5ABB6" stroke="none" d="M 25 0.5 L 27.319208416909483 0.5 L 27.319208416909483 -0.5 L 25 -0.5 Z M 72.31920841690948 0.5 L 74.63841683381897 0.5 L 74.63841683381897 3.5 L 81.63841683381897 0 L 74.63841683381897 -3.5 L 74.63841683381897 -0.5 L 72.31920841690948 -0.5 Z"/><text text-anchor="middle" pointer-events="none" font-size="8px" fill="#000000" x="49.81920841690948" y="3" transform="rotate(180 49.81920841690948 0)" font-family="sans-serif">ACTED_IN</text></g></g><g class="layer nodes"><g class="node" transform="translate(110.02581918232235,87.27351670828315)"><circle class="outline" cx="0" cy="0" r="25" fill="#F79767" stroke="#f36924" stroke-width="2px"/><text text-anchor="middle" pointer-events="none" font-family="sans-serif" dy="1.5625" font-size="25" fill="#FFFFFF"/><text text-anchor="middle" pointer-events="none" font-family="sans-serif" dy="1.5625" font-size="25" fill="#FFFFFF"/><text text-anchor="middle" pointer-events="none" x="0" y="0" font-size="10px" fill="#FFFFFF" font-family="sans-serif"> Captain</text><text text-anchor="middle" pointer-events="none" x="0" y="10" font-size="10px" fill="#FFFFFF" font-family="sans-serif"> America:</text></g><g class="node" transform="translate(69.33938970598219,-11.753083449519847)"><circle class="outline" cx="0" cy="0" r="25" fill="#57C7E3" stroke="#23b3d7" stroke-width="2px"/><text text-anchor="middle" pointer-events="none" font-family="sans-serif" dy="1.5625" font-size="25" fill="#2A2C34"/><text text-anchor="middle" pointer-events="none" font-family="sans-serif" dy="1.5625" font-size="25" fill="#2A2C34"/><text text-anchor="middle" pointer-events="none" x="0" y="0" font-size="10px" fill="#2A2C34" font-family="sans-serif"> Joe</text><text text-anchor="middle" pointer-events="none" x="0" y="10" font-size="10px" fill="#2A2C34" font-family="sans-serif"> Johnston</text></g><g class="node" transform="translate(7.241595629060627,124.54620418138451)"><circle class="outline" cx="0" cy="0" r="25" fill="#57C7E3" stroke="#23b3d7" stroke-width="2px"/><text text-anchor="middle" pointer-events="none" font-family="sans-serif" dy="1.5625" font-size="25" fill="#2A2C34"/><text text-anchor="middle" pointer-events="none" x="0" y="5" font-size="10px" fill="#2A2C34" font-family="sans-serif"> Christop…</text></g><g class="node" transform="translate(131.85599653680825,192.54928334191712)"><circle class="outline" cx="0" cy="0" r="25" fill="#57C7E3" stroke="#23b3d7" stroke-width="2px"/><text text-anchor="middle" pointer-events="none" font-family="sans-serif" dy="1.5625" font-size="25" fill="#2A2C34"/><text text-anchor="middle" pointer-events="none" font-family="sans-serif" dy="1.5625" font-size="25" fill="#2A2C34"/><text text-anchor="middle" pointer-events="none" x="0" y="0" font-size="10px" fill="#2A2C34" font-family="sans-serif"> Hayley</text><text text-anchor="middle" pointer-events="none" x="0" y="10" font-size="10px" fill="#2A2C34" font-family="sans-serif"> Atwell</text></g><g class="node" transform="translate(214.6531531054794,66.66107044502958)"><circle class="outline" cx="0" cy="0" r="25" fill="#57C7E3" stroke="#23b3d7" stroke-width="2px"/><text text-anchor="middle" pointer-events="none" font-family="sans-serif" dy="1.5625" font-size="25" fill="#2A2C34"/><text text-anchor="middle" pointer-events="none" font-family="sans-serif" dy="1.5625" font-size="25" fill="#2A2C34"/><text text-anchor="middle" pointer-events="none" x="0" y="0" font-size="10px" fill="#2A2C34" font-family="sans-serif"> Chris</text><text text-anchor="middle" pointer-events="none" x="0" y="10" font-size="10px" fill="#2A2C34" font-family="sans-serif"> Evans</text></g></g></svg>