<svg xmlns="http://www.w3.org/2000/svg" width="283.3177185058594" height="263.8712463378906" viewBox="-24.276464462280273 -55.242698669433594 283.3177185058594 263.8712463378906"><title>Neo4j Graph Visualization</title><desc>Created using Neo4j (http://www.neo4j.com/)</desc><g class="layer relationships"><g class="relationship" transform="translate(219.89170201467473 170.51099720672147) rotate(535.2289538244297)"><path class="outline" fill="#A5ABB6" stroke="none" d="M 25 0.5 L 27.809899732391095 0.5 L 27.809899732391095 -0.5 L 25 -0.5 Z M 74.8098997323911 0.5 L 77.61979946478219 0.5 L 77.61979946478219 3.5 L 84.61979946478219 0 L 77.61979946478219 -3.5 L 77.61979946478219 -0.5 L 74.8098997323911 -0.5 Z"/><text text-anchor="middle" pointer-events="none" font-size="8px" fill="#000000" x="51.309899732391095" y="3" transform="rotate(180 51.309899732391095 0)" font-family="sans-serif">DIRECTED</text></g><g class="relationship" transform="translate(154.91397656837276 92.44622316868706) rotate(263.4638176357007)"><path class="outline" fill="#A5ABB6" stroke="none" d="M 24.018736134675446,6.953439040707552 L 24.277555179777966,5.987513214418485 A 106.6905174800995 106.6905174800995 0 0 0 24.62656347860687,6.0803968693765995 L 24.371015654856276,7.047193285265877 A 107.6905174800995 107.6905174800995 0 0 1 24.018736134675446,6.953439040707552 Z M 76.09629711019885,7.867393754128699 L 75.87153076455286,6.892981064420198 A 106.6905174800995 106.6905174800995 0 0 0 76.22330854370433,6.811209675138772 L 75.5391179684893,3.890270912208794 L 83.15286408641013,5.701588126792006 L 77.13556264399107,10.705794692378742 L 76.45137206877602,7.7848559294487645 A 107.6905174800995 107.6905174800995 0 0 1 76.09629711019885,7.867393754128699"/><text text-anchor="middle" pointer-events="none" font-size="8px" fill="#000000" x="50.19160181391988" y="13.10943099132193" transform="rotate(180 50.19160181391988 10.10943099132193)" font-family="sans-serif">PRODUCED</text></g><g class="relationship" transform="translate(154.91397656837276 92.44622316868706) rotate(263.4638176357007)"><path class="outline" fill="#A5ABB6" stroke="none" d="M 24.018736134675446,-6.953439040707552 L 24.277555179777966,-5.987513214418485 A 106.6905174800995 106.6905174800995 0 0 1 32.883108124732345,-7.916019159767245 L 32.70494810302016,-8.900020687542224 A 107.6905174800995 107.6905174800995 0 0 0 24.018736134675446,-6.953439040707552 Z M 67.7078093028572,-9.455056104651248 L 67.56093735314901,-8.46590059089776 A 106.6905174800995 106.6905174800995 0 0 1 76.22330854370433,-6.811209675138772 L 75.5391179684893,-3.890270912208794 L 83.15286408641013,-5.701588126792006 L 77.13556264399107,-10.705794692378742 L 76.45137206877602,-7.7848559294487645 A 107.6905174800995 107.6905174800995 0 0 0 67.7078093028572,-9.455056104651248"/><text text-anchor="middle" pointer-events="none" font-size="8px" fill="#000000" x="50.191601813919846" y="-7.109430991321929" transform="rotate(180 50.191601813919846 -10.10943099132193)" font-family="sans-serif">WROTE</text></g><g class="relationship" transform="translate(154.91397656837276 92.44622316868706) rotate(476.9167897268276)"><path class="outline" fill="#A5ABB6" stroke="none" d="M 25 0.5 L 25.8873786510133 0.5 L 25.8873786510133 -0.5 L 25 -0.5 Z M 64.88737865101331 0.5 L 65.7747573020266 0.5 L 65.7747573020266 3.5 L 72.7747573020266 0 L 65.7747573020266 -3.5 L 65.7747573020266 -0.5 L 64.88737865101331 -0.5 Z"/><text text-anchor="middle" pointer-events="none" font-size="8px" fill="#000000" x="45.3873786510133" y="3" transform="rotate(180 45.3873786510133 0)" font-family="sans-serif">DIREC…</text></g><g class="relationship" transform="translate(154.91397656837276 92.44622316868706) rotate(239.0970091766912)"><path class="outline" fill="#A5ABB6" stroke="none" d="M 25 0.5 L 42.162967048871494 0.5 L 42.162967048871494 -0.5 L 25 -0.5 Z M 89.1629670488715 0.5 L 106.32593409774299 0.5 L 106.32593409774299 3.5 L 113.32593409774299 0 L 106.32593409774299 -3.5 L 106.32593409774299 -0.5 L 89.1629670488715 -0.5 Z"/><text text-anchor="middle" pointer-events="none" font-size="8px" fill="#000000" x="65.6629670488715" y="3" transform="rotate(180 65.6629670488715 0)" font-family="sans-serif">DIRECTED</text></g><g class="relationship" transform="translate(154.91397656837276 92.44622316868706) rotate(505.05539374263043)"><path class="outline" fill="#A5ABB6" stroke="none" d="M 25 0.5 L 35.288186612836064 0.5 L 35.288186612836064 -0.5 L 25 -0.5 Z M 82.28818661283606 0.5 L 92.57637322567213 0.5 L 92.57637322567213 3.5 L 99.57637322567213 0 L 92.57637322567213 -3.5 L 92.57637322567213 -0.5 L 82.28818661283606 -0.5 Z"/><text text-anchor="middle" pointer-events="none" font-size="8px" fill="#000000" x="58.788186612836064" y="3" transform="rotate(180 58.788186612836064 0)" font-family="sans-serif">DIRECTED</text></g><g class="relationship" transform="translate(154.91397656837276 92.44622316868706) rotate(526.7036031272451)"><path class="outline" fill="#A5ABB6" stroke="none" d="M 25 0.5 L 50.16372267447014 0.5 L 50.16372267447014 -0.5 L 25 -0.5 Z M 97.16372267447014 0.5 L 122.32744534894027 0.5 L 122.32744534894027 3.5 L 129.32744534894027 0 L 122.32744534894027 -3.5 L 122.32744534894027 -0.5 L 97.16372267447014 -0.5 Z"/><text text-anchor="middle" pointer-events="none" font-size="8px" fill="#000000" x="73.66372267447014" y="3" transform="rotate(180 73.66372267447014 0)" font-family="sans-serif">DIRECTED</text></g><g class="relationship" transform="translate(40.64247029829114 54.10539940729311) rotate(326.14274317976196)"><path class="outline" fill="#A5ABB6" stroke="none" d="M 24.018736134675446,6.953439040707552 L 24.277555179777966,5.987513214418485 A 137.29361807357654 137.29361807357654 0 0 0 32.17749740714731,7.855834687374852 L 31.97621885327968,8.835368731578 A 138.29361807357654 138.29361807357654 0 0 1 24.018736134675446,6.953439040707552 Z M 83.8507113287183,9.560363497209153 L 83.67688585972466,8.575587021896553 A 137.29361807357654 137.29361807357654 0 0 0 91.62595544455527,6.928770378307184 L 90.93078408300106,4.010425508680761 L 98.55128870060929,5.793094679618428 L 92.55285059329422,10.819896871142415 L 91.85767923174001,7.901552001515992 A 138.29361807357654 138.29361807357654 0 0 1 83.8507113287183,9.560363497209153"/><text text-anchor="middle" pointer-events="none" font-size="8px" fill="#000000" x="57.88615109824819" y="14.15222437819753" font-family="sans-serif">PRODUCED</text></g><g class="relationship" transform="translate(40.64247029829114 54.10539940729311) rotate(326.14274317976196)"><path class="outline" fill="#A5ABB6" stroke="none" d="M 24.018736134675446,-6.953439040707552 L 24.277555179777966,-5.987513214418485 A 137.29361807357654 137.29361807357654 0 0 1 40.52062508754951,-9.303624449882534 L 40.38011503696316,-10.293703702106427 A 138.29361807357654 138.29361807357654 0 0 0 24.018736134675446,-6.953439040707552 Z M 75.40934227571316,-10.783270060837026 L 75.29655627600663,-9.789650758352309 A 137.29361807357654 137.29361807357654 0 0 1 91.62595544455527,-6.928770378307184 L 90.93078408300106,-4.010425508680761 L 98.55128870060929,-5.793094679618428 L 92.55285059329422,-10.819896871142415 L 91.85767923174001,-7.901552001515992 A 138.29361807357654 138.29361807357654 0 0 0 75.40934227571316,-10.783270060837026"/><text text-anchor="middle" pointer-events="none" font-size="8px" fill="#000000" x="57.88615109824815" y="-8.15222437819753" font-family="sans-serif">WROTE</text></g><g class="relationship" transform="translate(40.64247029829114 54.10539940729311) rotate(420.84984927821495)"><path class="outline" fill="#A5ABB6" stroke="none" d="M 25 0.5 L 44.863336612915234 0.5 L 44.863336612915234 -0.5 L 25 -0.5 Z M 91.86333661291523 0.5 L 111.72667322583047 0.5 L 111.72667322583047 3.5 L 118.72667322583047 0 L 111.72667322583047 -3.5 L 111.72667322583047 -0.5 L 91.86333661291523 -0.5 Z"/><text text-anchor="middle" pointer-events="none" font-size="8px" fill="#000000" x="68.36333661291523" y="3" font-family="sans-serif">DIRECTED</text></g><g class="relationship" transform="translate(40.64247029829114 54.10539940729311) rotate(298.2813358184233)"><path class="outline" fill="#A5ABB6" stroke="none" d="M 25 0.5 L 25.61957842895668 0.5 L 25.61957842895668 -0.5 L 25 -0.5 Z M 58.61957842895668 0.5 L 59.23915685791336 0.5 L 59.23915685791336 3.5 L 66.23915685791336 0 L 59.23915685791336 -3.5 L 59.23915685791336 -0.5 L 58.61957842895668 -0.5 Z"/><text text-anchor="middle" pointer-events="none" font-size="8px" fill="#000000" x="42.11957842895668" y="3" font-family="sans-serif">DIRE…</text></g><g class="relationship" transform="translate(40.64247029829114 54.10539940729311) rotate(443.6768276659705)"><path class="outline" fill="#A5ABB6" stroke="none" d="M 25 0.5 L 28.183812676268573 0.5 L 28.183812676268573 -0.5 L 25 -0.5 Z M 75.18381267626857 0.5 L 78.36762535253715 0.5 L 78.36762535253715 3.5 L 85.36762535253715 0 L 78.36762535253715 -3.5 L 78.36762535253715 -0.5 L 75.18381267626857 -0.5 Z"/><text text-anchor="middle" pointer-events="none" font-size="8px" fill="#000000" x="51.68381267626857" y="3" font-family="sans-serif">DIRECTED</text></g><g class="relationship" transform="translate(40.64247029829114 54.10539940729311) rotate(475.9419902399504)"><path class="outline" fill="#A5ABB6" stroke="none" d="M 25 0.5 L 26.553878287480735 0.5 L 26.553878287480735 -0.5 L 25 -0.5 Z M 48.553878287480735 0.5 L 50.10775657496147 0.5 L 50.10775657496147 3.5 L 57.10775657496147 0 L 50.10775657496147 -3.5 L 50.10775657496147 -0.5 L 48.553878287480735 -0.5 Z"/><text text-anchor="middle" pointer-events="none" font-size="8px" fill="#000000" x="37.553878287480735" y="3" transform="rotate(180 37.553878287480735 0)" font-family="sans-serif">DI…</text></g><g class="relationship" transform="translate(230.04127039275158 36.73266139386453) rotate(210.31501306406892)"><path class="outline" fill="#A5ABB6" stroke="none" d="M 25 0.5 L 25.10067080145477 0.5 L 25.10067080145477 -0.5 L 25 -0.5 Z M 69.10067080145477 0.5 L 69.20134160290954 0.5 L 69.20134160290954 3.5 L 76.20134160290954 0 L 69.20134160290954 -3.5 L 69.20134160290954 -0.5 L 69.10067080145477 -0.5 Z"/><text text-anchor="middle" pointer-events="none" font-size="8px" fill="#000000" x="47.10067080145477" y="3" transform="rotate(180 47.10067080145477 0)" font-family="sans-serif">DIRECT…</text></g></g><g class="layer nodes"><g class="node" transform="translate(110.65173321075332,179.6285435003981)"><circle class="outline" cx="0" cy="0" r="25" fill="#F79767" stroke="#f36924" stroke-width="2px"/><text text-anchor="middle" pointer-events="none" font-family="sans-serif" dy="1.5625" font-size="25" fill="#FFFFFF"/><text text-anchor="middle" pointer-events="none" font-family="sans-serif" dy="1.5625" font-size="25" fill="#FFFFFF"/><text text-anchor="middle" pointer-events="none" x="0" y="0" font-size="10px" fill="#FFFFFF" font-family="sans-serif"> Cloud</text><text text-anchor="middle" pointer-events="none" x="0" y="10" font-size="10px" fill="#FFFFFF" font-family="sans-serif"> Atlas</text></g><g class="node" transform="translate(219.89170201467473,170.51099720672147)"><circle class="outline" cx="0" cy="0" r="25" fill="#57C7E3" stroke="#23b3d7" stroke-width="2px"/><text text-anchor="middle" pointer-events="none" font-family="sans-serif" dy="1.5625" font-size="25" fill="#2A2C34"/><text text-anchor="middle" pointer-events="none" font-family="sans-serif" dy="1.5625" font-size="25" fill="#2A2C34"/><text text-anchor="middle" pointer-events="none" x="0" y="0" font-size="10px" fill="#2A2C34" font-family="sans-serif"> Tom</text><text text-anchor="middle" pointer-events="none" x="0" y="10" font-size="10px" fill="#2A2C34" font-family="sans-serif"> Tykwer</text></g><g class="node" transform="translate(154.91397656837276,92.44622316868706)"><circle class="outline" cx="0" cy="0" r="25" fill="#57C7E3" stroke="#23b3d7" stroke-width="2px"/><text text-anchor="middle" pointer-events="none" font-family="sans-serif" dy="1.5625" font-size="25" fill="#2A2C34"/><text text-anchor="middle" pointer-events="none" font-family="sans-serif" dy="1.5625" font-size="25" fill="#2A2C34"/><text text-anchor="middle" pointer-events="none" x="0" y="0" font-size="10px" fill="#2A2C34" font-family="sans-serif"> Lana</text><text text-anchor="middle" pointer-events="none" x="0" y="10" font-size="10px" fill="#2A2C34" font-family="sans-serif"> Wacho…</text></g><g class="node" transform="translate(40.64247029829114,54.10539940729311)"><circle class="outline" cx="0" cy="0" r="25" fill="#57C7E3" stroke="#23b3d7" stroke-width="2px"/><text text-anchor="middle" pointer-events="none" font-family="sans-serif" dy="1.5625" font-size="25" fill="#2A2C34"/><text text-anchor="middle" pointer-events="none" font-family="sans-serif" dy="1.5625" font-size="25" fill="#2A2C34"/><text text-anchor="middle" pointer-events="none" x="0" y="0" font-size="10px" fill="#2A2C34" font-family="sans-serif"> Lilly</text><text text-anchor="middle" pointer-events="none" x="0" y="10" font-size="10px" fill="#2A2C34" font-family="sans-serif"> Wacho…</text></g><g class="node" transform="translate(142.67786416030674,-14.349104371363353)"><circle class="outline" cx="0" cy="0" r="25" fill="#F79767" stroke="#f36924" stroke-width="2px"/><text text-anchor="middle" pointer-events="none" font-family="sans-serif" dy="1.5625" font-size="25" fill="#FFFFFF"/><text text-anchor="middle" pointer-events="none" font-family="sans-serif" dy="1.5625" font-size="25" fill="#FFFFFF"/><text text-anchor="middle" pointer-events="none" x="0" y="0" font-size="10px" fill="#FFFFFF" font-family="sans-serif"> V for</text><text text-anchor="middle" pointer-events="none" x="0" y="10" font-size="10px" fill="#FFFFFF" font-family="sans-serif"> Vendetta</text></g><g class="node" transform="translate(230.04127039275158,36.73266139386453)"><circle class="outline" cx="0" cy="0" r="25" fill="#57C7E3" stroke="#23b3d7" stroke-width="2px"/><text text-anchor="middle" pointer-events="none" font-family="sans-serif" dy="1.5625" font-size="25" fill="#2A2C34"/><text text-anchor="middle" pointer-events="none" font-family="sans-serif" dy="1.5625" font-size="25" fill="#2A2C34"/><text text-anchor="middle" pointer-events="none" x="0" y="0" font-size="10px" fill="#2A2C34" font-family="sans-serif"> James</text><text text-anchor="middle" pointer-events="none" x="0" y="10" font-size="10px" fill="#2A2C34" font-family="sans-serif"> Marshall</text></g><g class="node" transform="translate(83.87170755515557,-26.24269820760156)"><circle class="outline" cx="0" cy="0" r="25" fill="#F79767" stroke="#f36924" stroke-width="2px"/><text text-anchor="middle" pointer-events="none" font-family="sans-serif" dy="1.5625" font-size="25" fill="#FFFFFF"/><text text-anchor="middle" pointer-events="none" font-family="sans-serif" dy="1.5625" font-size="25" fill="#FFFFFF"/><text text-anchor="middle" pointer-events="none" font-family="sans-serif" dy="1.5625" font-size="25" fill="#FFFFFF"/><text text-anchor="middle" pointer-events="none" x="0" y="-5" font-size="10px" fill="#FFFFFF" font-family="sans-serif"> The</text><text text-anchor="middle" pointer-events="none" x="0" y="5" font-size="10px" fill="#FFFFFF" font-family="sans-serif"> Matrix</text><text text-anchor="middle" pointer-events="none" x="0" y="15" font-size="10px" fill="#FFFFFF" font-family="sans-serif"> Revol…</text></g><g class="node" transform="translate(52.79795144807538,163.80160264138522)"><circle class="outline" cx="0" cy="0" r="25" fill="#F79767" stroke="#f36924" stroke-width="2px"/><text text-anchor="middle" pointer-events="none" font-family="sans-serif" dy="1.5625" font-size="25" fill="#FFFFFF"/><text text-anchor="middle" pointer-events="none" font-family="sans-serif" dy="1.5625" font-size="25" fill="#FFFFFF"/><text text-anchor="middle" pointer-events="none" font-family="sans-serif" dy="1.5625" font-size="25" fill="#FFFFFF"/><text text-anchor="middle" pointer-events="none" x="0" y="-5" font-size="10px" fill="#FFFFFF" font-family="sans-serif"> The</text><text text-anchor="middle" pointer-events="none" x="0" y="5" font-size="10px" fill="#FFFFFF" font-family="sans-serif"> Matrix</text><text text-anchor="middle" pointer-events="none" x="0" y="15" font-size="10px" fill="#FFFFFF" font-family="sans-serif"> Reloa…</text></g><g class="node" transform="translate(4.723534905780109,127.93976654104559)"><circle class="outline" cx="0" cy="0" r="25" fill="#F79767" stroke="#f36924" stroke-width="2px"/><text text-anchor="middle" pointer-events="none" font-family="sans-serif" dy="1.5625" font-size="25" fill="#FFFFFF"/><text text-anchor="middle" pointer-events="none" font-family="sans-serif" dy="1.5625" font-size="25" fill="#FFFFFF"/><text text-anchor="middle" pointer-events="none" x="0" y="0" font-size="10px" fill="#FFFFFF" font-family="sans-serif"> The</text><text text-anchor="middle" pointer-events="none" x="0" y="10" font-size="10px" fill="#FFFFFF" font-family="sans-serif"> Matrix</text></g></g></svg>